ply
format ascii 1.0
comment Created by Blender 2.79 (sub 0) - www.blender.org, source file: 'bird.blend'
element vertex 120
property float x
property float y
property float z
element face 117
property list uchar uint vertex_indices
end_header
-0.164843 -0.877926 0.112058
0.730435 -0.877926 0.112058
0.730435 -1.106910 0.369799
-0.164843 -1.106910 0.369799
-0.164843 0.936813 1.603646
-0.164843 0.507838 1.588662
-0.164843 0.610099 2.068506
-0.164843 0.635707 2.135875
0.730435 0.322948 1.178946
0.730435 0.507838 1.588662
-0.164843 0.322948 1.178946
-0.164843 1.136031 1.308368
0.730435 0.936813 1.603646
0.730435 1.136031 1.308368
0.730435 0.610099 2.068506
0.730435 0.635707 2.135875
0.730435 1.136031 1.308368
0.730435 0.322948 1.178946
0.730435 1.157201 1.048633
-0.164843 1.136031 1.308368
-0.164843 0.322948 1.178946
-0.164843 -0.478777 -0.271081
0.730435 -0.478777 -0.271081
-0.164843 1.157202 1.048633
0.730435 0.081392 1.235528
-0.164843 1.043394 0.838995
-0.164843 1.020231 0.531404
-0.164843 0.342931 -0.910585
0.730435 1.043394 0.838995
-0.164843 1.043394 0.838995
-0.164843 1.020231 0.531404
0.730435 1.020231 0.531404
0.730435 1.157201 1.048633
0.730435 1.043394 0.838995
-0.164843 1.157202 1.048633
-0.164842 1.154447 0.221711
-0.164843 0.879479 -1.251227
-0.164842 1.154447 0.221711
0.730435 1.154447 0.221711
0.730435 0.342931 -0.910585
0.730435 0.183960 -1.095294
-0.164843 0.183960 -1.095294
0.730435 1.020231 0.531404
0.730435 -0.577400 -0.470877
0.730435 -0.842256 -0.603255
0.730435 0.115559 -1.310057
-0.164843 -0.577400 -0.470877
0.730435 -1.607674 -0.729237
-0.164843 -1.607674 -0.729237
-0.164843 -1.590821 -1.093730
0.730435 -1.590821 -1.093730
-0.164843 -0.842256 -0.603255
-0.164843 0.115559 -1.310057
-0.164843 0.154977 -2.107791
0.730435 0.154977 -2.107791
0.730435 -2.064197 1.517983
-0.164843 -2.064197 1.517983
-0.164843 0.081392 1.235528
-0.164843 -0.659900 2.163944
-0.164843 0.081392 1.235528
0.730435 0.081392 1.235528
0.730435 -0.659899 2.163944
0.730435 -1.103776 2.669047
0.730435 -2.471865 2.167921
0.730435 -0.659899 2.163944
-0.164843 -0.659900 2.163944
-0.164843 -1.103776 2.669047
0.730435 -1.103776 2.669047
-0.164843 -2.471865 2.167921
0.730435 -3.151791 2.461719
-0.164843 -3.151791 2.461719
-0.164843 -1.103776 2.669047
-0.164843 -1.839409 3.074260
0.730435 -1.839409 3.074260
0.730435 -4.235456 3.759876
0.730435 -3.802335 3.091627
0.730435 -1.839409 3.074260
-0.164843 -1.839409 3.074260
-0.164842 -4.235456 3.759876
0.730435 -4.235456 3.759876
-0.164842 -4.235456 3.759876
-0.164843 -3.802335 3.091627
0.730435 1.154447 0.221711
0.730435 0.879479 -1.251227
0.730435 1.975898 -1.842561
0.730435 1.678316 -0.075612
0.730435 1.678316 -0.075612
-0.164842 1.678316 -0.075612
-0.164842 3.090981 -0.652623
0.730435 3.090981 -0.652623
-0.164842 1.678316 -0.075612
-0.164842 3.090981 -0.652623
-0.164842 1.975898 -1.842561
0.730435 3.090981 -0.652623
0.730435 3.233819 -2.280304
0.730435 3.546617 -2.807466
0.730435 3.635893 -1.086939
0.730435 3.635893 -1.086939
-0.164842 3.233819 -2.280304
-0.164842 3.635893 -1.086939
-0.164842 4.200767 -1.911572
0.730435 4.200767 -1.911572
-0.164842 3.635893 -1.086939
-0.164842 4.200767 -1.911572
-0.164842 3.546617 -2.807466
0.730435 4.200767 -1.911572
0.730435 4.111490 -3.242146
0.730435 5.148455 -3.628247
0.730436 4.810641 -3.003302
0.730436 4.810641 -3.003302
-0.164842 4.111490 -3.242146
-0.164842 5.148455 -3.628247
-0.164842 4.810641 -3.003302
-0.164842 4.810641 -3.003302
-0.164843 -0.119685 -2.199781
0.730435 -0.119685 -2.199781
0.730435 -0.243862 -2.364945
-0.164843 -0.243862 -2.364945
0.730435 -1.714997 -1.258895
-0.164843 -1.714997 -1.258895
4 0 1 2 3
4 4 5 6 7
4 8 9 5 10
4 10 5 4 11
4 11 4 12 13
4 9 8 13 12
4 14 15 7 6
4 5 9 14 6
4 12 4 7 15
4 9 12 15 14
4 16 17 1 18
4 11 13 16 19
4 10 11 19 20
4 13 8 17 16
4 1 0 21 22
4 20 19 23 0
4 1 17 24 2
4 19 16 18 23
4 0 23 25 21
4 21 25 26 27
4 28 29 30 31
4 18 32 28 33
4 18 1 22 33
4 34 23 25 29
4 32 34 29 28
4 27 26 35 36
4 31 30 37 38
4 27 39 40 41
4 33 28 31 42
4 33 22 39 42
4 29 25 26 30
4 40 43 44 45
4 22 21 46 43
4 21 27 41 46
4 39 22 43 40
4 47 48 49 50
4 44 51 48 47
4 51 52 53 48
4 46 41 52 51
4 52 45 54 53
4 43 46 51 44
4 45 44 47 54
4 41 40 45 52
4 3 2 55 56
4 57 3 56 58
4 20 0 3 57
4 10 20 57 59
4 8 10 59 60
4 17 8 60 24
4 55 61 62 63
4 64 65 66 67
4 59 57 58 65
4 60 59 65 64
4 2 24 61 55
4 24 60 64 61
4 68 63 69 70
4 71 68 70 72
4 61 64 67 62
4 58 56 68 71
4 56 55 63 68
4 65 58 71 66
4 69 73 74 75
4 76 77 78 79
4 66 71 72 77
4 67 66 77 76
4 63 62 73 69
4 62 67 76 73
4 79 78 80 74
4 74 80 81 75
4 73 76 79 74
4 72 70 81 80
4 70 69 75 81
4 77 72 80 78
4 82 83 84 85
4 82 38 86 85
4 39 27 36 83
4 42 31 38 82
4 42 39 83 82
4 30 26 35 37
4 86 87 88 89
4 87 90 91 88
4 37 35 90 87
4 38 37 87 86
4 36 35 90 92
4 83 36 92 84
4 93 94 95 96
4 93 89 97 96
4 92 90 91 98
4 84 92 98 94
4 85 86 89 93
4 85 84 94 93
4 97 99 100 101
4 99 102 103 100
4 88 91 102 99
4 89 88 99 97
4 98 91 102 104
4 94 98 104 95
4 105 106 107 108
4 105 101 109 108
4 104 102 103 110
4 95 104 110 106
4 96 97 101 105
4 96 95 106 105
4 107 111 112 108
4 112 108 109 113
4 100 103 112 113
4 101 100 113 109
4 110 103 112 111
4 106 110 111 107
4 114 115 116 117
4 53 54 115 114
4 48 53 114 49
4 54 47 50 115
4 118 119 117 116
4 115 50 118 116
4 49 114 117 119
4 50 49 119 118
